<?xml version="1.0" encoding="UTF-8" standalone="no"?>
<svg width="134px" height="63px" viewBox="0 0 134 63" version="1.1" xmlns="http://www.w3.org/2000/svg" xmlns:xlink="http://www.w3.org/1999/xlink">
    <!-- Generator: Sketch 39.1 (31720) - http://www.bohemiancoding.com/sketch -->
    <title>Artboard</title>
    <desc>Created with Sketch.</desc>
    <defs>
        <rect id="path-1" x="0" y="0" width="132" height="32" rx="8"></rect>
        <mask id="mask-2" maskContentUnits="userSpaceOnUse" maskUnits="objectBoundingBox" x="0" y="0" width="132" height="32" fill="white">
            <use xlink:href="#path-1"></use>
        </mask>
    </defs>
    <g id="Page-1" stroke="none" stroke-width="1" fill="none" fill-rule="evenodd">
        <g id="Artboard">
            <g id="Group-2" transform="translate(66.892209, 31.536870) rotate(-15.000000) translate(-66.892209, -31.536870) translate(0.892209, 15.536870)">
                <use id="Rectangle" stroke="#3575C0" mask="url(#mask-2)" stroke-width="4" fill="#4990E2" xlink:href="#path-1"></use>
                <path d="M19.8480457,7.36711111 L17.9760457,13.1271111 L12.0720457,13.1271111 L16.8240457,16.6951111 L15.0000457,22.3591111 L19.8480457,18.8551111 L24.6800457,22.3591111 L22.8720457,16.6951111 L27.6080457,13.1271111 L21.7040457,13.1271111 L19.8480457,7.36711111 Z M37.2803372,11.3532986 L39.7725247,11.3532986 C40.2412771,11.3428819 40.6527313,11.4496517 41.0068997,11.6736111 C41.2412759,11.8090285 41.4235658,11.9939224 41.5537747,12.2282986 C41.6787754,12.4887166 41.7412747,12.8090259 41.7412747,13.1892361 C41.7412747,13.6475717 41.5876304,14.0642342 41.2803372,14.4392361 C40.957419,14.8246547 40.4756529,15.0225694 39.8350247,15.0329861 L37.2803372,15.0329861 L37.2803372,11.3532986 Z M35.5537747,21.1111111 L37.2803372,21.1111111 L37.2803372,16.6657986 L39.9053372,16.6657986 C41.0772181,16.6449652 41.9678342,16.2699689 42.5772122,15.5407986 C43.1709652,14.8480868 43.4678372,14.0798653 43.4678372,13.2361111 C43.4678372,12.611108 43.3506509,12.0694467 43.1162747,11.6111111 C42.8923153,11.1371504 42.6006515,10.7725707 42.2412747,10.5173611 C41.8141893,10.1788178 41.3923185,9.95486166 40.9756497,9.84548611 C40.558981,9.76215236 40.1266936,9.72048611 39.6787747,9.72048611 L35.5537747,9.72048611 L35.5537747,21.1111111 Z M45.5355455,17.0486111 C45.5355455,17.902782 45.6058573,18.5538172 45.746483,19.0017361 C45.8923171,19.449655 46.1162731,19.837672 46.418358,20.1657986 C46.6423174,20.4210082 46.9548143,20.6501726 47.355858,20.8532986 C47.7516933,21.0772581 48.2595007,21.1944444 48.8792955,21.2048611 C49.5199237,21.1944444 50.0381477,21.0772581 50.433983,20.8532986 C50.6475257,20.7595481 50.8220031,20.6475701 50.9574205,20.5173611 C51.1084629,20.4027772 51.2360658,20.2855909 51.340233,20.1657986 C51.6631513,19.837672 51.8923156,19.449655 52.027733,19.0017361 C52.157942,18.5538172 52.2230455,17.902782 52.2230455,17.0486111 C52.2230455,16.1944402 52.157942,15.5381967 52.027733,15.0798611 C51.8923156,14.6319422 51.6631513,14.2543418 51.340233,13.9470486 C51.1266903,13.6762139 50.8246099,13.4340288 50.433983,13.2204861 C50.0381477,13.0173601 49.5199237,12.9105903 48.8792955,12.9001736 C48.2595007,12.9105903 47.7516933,13.0173601 47.355858,13.2204861 C46.9548143,13.4340288 46.6423174,13.6762139 46.418358,13.9470486 C46.1162731,14.2543418 45.8923171,14.6319422 45.746483,15.0798611 C45.6058573,15.5381967 45.5355455,16.1944402 45.5355455,17.0486111 L45.5355455,17.0486111 Z M50.590233,17.0642361 C50.590233,17.6163222 50.5641916,18.0225681 50.512108,18.2829861 C50.4600244,18.5486124 50.3532546,18.7829851 50.1917955,18.9861111 C50.0720032,19.1423619 49.8949217,19.2803813 49.6605455,19.4001736 C49.436586,19.5147575 49.176172,19.5720486 48.8792955,19.5720486 C48.6032524,19.5720486 48.3480467,19.5147575 48.1136705,19.4001736 C47.889711,19.2803813 47.7074212,19.1423619 47.5667955,18.9861111 C47.4261698,18.7829851 47.3246083,18.5486124 47.262108,18.2829861 C47.1996077,18.0225681 47.168358,17.6111139 47.168358,17.0486111 C47.168358,16.4808999 47.1996077,16.0642374 47.262108,15.7986111 C47.3246083,15.5434015 47.4261698,15.3194454 47.5667955,15.1267361 C47.7074212,14.9444435 47.889711,14.8012158 48.1136705,14.6970486 C48.3480467,14.5876731 48.6032524,14.5329861 48.8792955,14.5329861 C49.176172,14.5329861 49.436586,14.5876731 49.6605455,14.6970486 C49.8949217,14.8012158 50.0720032,14.9444435 50.1917955,15.1267361 C50.3532546,15.3194454 50.4600244,15.5434015 50.512108,15.7986111 C50.5641916,16.0642374 50.590233,16.4861082 50.590233,17.0642361 L50.590233,17.0642361 Z M55.2673162,24.3923611 L56.9001287,24.3923611 L56.9001287,20.2439236 C57.1970052,20.5355917 57.5225228,20.7647561 57.8766912,20.9314236 C58.2048179,21.1137162 58.57721,21.2048611 58.9938787,21.2048611 C59.4990896,21.1944444 59.9313769,21.0928829 60.2907537,20.9001736 C60.6553389,20.7126727 60.9496068,20.4626752 61.1735662,20.1501736 C61.3975257,19.8845473 61.55117,19.5434049 61.6345037,19.1267361 C61.7126291,18.7100674 61.7516912,18.0225742 61.7516912,17.0642361 C61.7516912,16.0798562 61.7126291,15.3819465 61.6345037,14.9704861 C61.55117,14.5538174 61.3975257,14.2178832 61.1735662,13.9626736 C60.7152306,13.2803785 59.9886754,12.9262154 58.9938787,12.9001736 C58.1397078,12.9262154 57.4417981,13.2413164 56.9001287,13.8454861 L56.9001287,13.0017361 L55.2673162,13.0017361 L55.2673162,24.3923611 Z M58.5016912,19.5720486 C58.1371061,19.5720486 57.8480465,19.4939244 57.6345037,19.3376736 C57.4105443,19.1866312 57.2464834,18.9887165 57.1423162,18.7439236 C57.0433574,18.4991307 56.9782539,18.225696 56.9470037,17.9236111 C56.9157536,17.6371513 56.9001287,17.3506959 56.9001287,17.0642361 C56.9001287,16.7569429 56.9157536,16.4522585 56.9470037,16.1501736 C56.9782539,15.8637138 57.0433574,15.5980915 57.1423162,15.3532986 C57.2464834,15.1085057 57.4105443,14.910591 57.6345037,14.7595486 C57.8480465,14.6085062 58.1371061,14.5329861 58.5016912,14.5329861 C58.8871098,14.5329861 59.1917943,14.5980896 59.4157537,14.7282986 C59.6397132,14.8689243 59.7985658,15.0616307 59.8923162,15.3064236 C59.9964834,15.5407998 60.0667952,15.8116304 60.1032537,16.1189236 C60.1136705,16.4262168 60.1188787,16.7413178 60.1188787,17.0642361 C60.1188787,17.3715293 60.1136705,17.6710055 60.1032537,17.9626736 C60.0667952,18.2595501 59.9964834,18.5303807 59.8923162,18.7751736 C59.7985658,19.0095498 59.6397132,19.2022562 59.4157537,19.3532986 C59.1917943,19.4991327 58.8871098,19.5720486 58.5016912,19.5720486 L58.5016912,19.5720486 Z M64.905337,18.3923611 C64.9157537,19.3090324 65.2152299,20.0017338 65.8037745,20.4704861 C66.3454439,20.9496552 66.9522086,21.1944444 67.624087,21.2048611 C68.4886747,21.2048611 69.1891885,20.8845518 69.7256495,20.2439236 L69.7568995,20.2439236 L69.7568995,21.1111111 L71.389712,21.1111111 L71.389712,13.0017361 L69.7568995,13.0017361 L69.7568995,17.8298611 C69.7568995,18.3767388 69.6058593,18.8038179 69.3037745,19.1111111 C69.006898,19.4184043 68.6240893,19.5720486 68.155337,19.5720486 C67.6865847,19.5720486 67.3011718,19.4184043 66.999087,19.1111111 C66.6917938,18.8038179 66.5381495,18.3767388 66.5381495,17.8298611 L66.5381495,13.0017361 L64.905337,13.0017361 L64.905337,18.3923611 Z M74.8324203,19.1423611 C74.8324203,19.8559063 75.0355432,20.3637138 75.4417953,20.6657986 C75.8272138,20.9626751 76.3167923,21.1111111 76.9105453,21.1111111 L77.6371078,21.1111111 L77.6371078,19.5720486 L77.0746078,19.5720486 C76.6683557,19.5720486 76.4652328,19.3871546 76.4652328,19.0173611 L76.4652328,9.72048611 L74.8324203,9.72048611 L74.8324203,19.1423611 Z M84.548566,21.1111111 L86.1813785,21.1111111 L86.1813785,15.5720486 C86.1709618,14.5824603 85.8610691,13.8845506 85.251691,13.4782986 C84.642313,13.0824633 83.8272169,12.8897569 82.8063785,12.9001736 C81.5980391,12.8793402 80.6839858,13.2751695 80.064191,14.0876736 L81.345441,15.0642361 C81.4860667,14.8298599 81.6787731,14.6631949 81.923566,14.5642361 C82.1579422,14.4809024 82.4782515,14.4392361 82.8845035,14.4392361 C84.0043008,14.4184027 84.5589827,14.7647534 84.548566,15.4782986 L84.548566,16.3298611 L82.2907535,16.3298611 C81.4261659,16.3402778 80.7699224,16.5746505 80.3220035,17.0329861 C79.8740846,17.480905 79.6501285,18.0460035 79.6501285,18.7282986 C79.6501285,19.4418438 79.9079384,20.0277755 80.423566,20.4861111 C80.9131518,20.9548635 81.6110615,21.1944444 82.517316,21.2048611 C83.0694021,21.2048611 83.5016894,21.1371535 83.814191,21.0017361 C84.1319009,20.8715271 84.3662736,20.6684042 84.517316,20.3923611 L84.548566,20.3923611 L84.548566,21.1111111 Z M84.548566,18.2595486 C84.548566,18.8689267 84.4209631,19.2595478 84.1657535,19.4314236 C83.8845021,19.6032995 83.4027361,19.6840278 82.720441,19.6736111 C82.1787716,19.6736111 81.7907547,19.5668413 81.5563785,19.3532986 C81.3115856,19.1605893 81.189191,18.9262167 81.189191,18.6501736 C81.1787743,18.0199621 81.6475196,17.6944445 82.595441,17.6736111 L84.548566,17.6736111 L84.548566,18.2595486 Z M83.814191,11.7361111 L85.548566,11.7361111 L85.548566,10.0095486 L83.814191,10.0095486 L83.814191,11.7361111 Z M81.001691,11.7361111 L82.7282535,11.7361111 L82.7282535,10.0095486 L81.001691,10.0095486 L81.001691,11.7361111 Z M89.6240868,21.1111111 L91.2568993,21.1111111 L91.2568993,16.2282986 C91.267316,15.6345456 91.4391893,15.2048624 91.7725243,14.9392361 C92.0694007,14.6684014 92.426168,14.5329861 92.8428368,14.5329861 C93.2126303,14.5329861 93.5693975,14.6684014 93.9131493,14.9392361 L95.1006493,13.5251736 C94.6162718,13.1189216 94.0485692,12.9105903 93.3975243,12.9001736 C92.5277282,12.9001736 91.8246103,13.2204829 91.2881493,13.8611111 L91.2568993,13.8611111 L91.2568993,13.0017361 L89.6240868,13.0017361 L89.6240868,21.1111111 Z M101.152733,21.1111111 L102.785545,21.1111111 L102.785545,15.5720486 C102.775128,14.5824603 102.465236,13.8845506 101.855858,13.4782986 C101.246479,13.0824633 100.431383,12.8897569 99.410545,12.9001736 C98.2022056,12.8793402 97.2881523,13.2751695 96.6683575,14.0876736 L97.9496075,15.0642361 C98.0902332,14.8298599 98.2829396,14.6631949 98.5277325,14.5642361 C98.7621087,14.4809024 99.082418,14.4392361 99.48867,14.4392361 C100.608467,14.4184027 101.163149,14.7647534 101.152733,15.4782986 L101.152733,16.3298611 L98.89492,16.3298611 C98.0303324,16.3402778 97.3740889,16.5746505 96.92617,17.0329861 C96.4782511,17.480905 96.254295,18.0460035 96.254295,18.7282986 C96.254295,19.4418438 96.5121049,20.0277755 97.0277325,20.4861111 C97.5173183,20.9548635 98.215228,21.1944444 99.1214825,21.2048611 C99.6735686,21.2048611 100.105856,21.1371535 100.418358,21.0017361 C100.736067,20.8715271 100.97044,20.6684042 101.121483,20.3923611 L101.152733,20.3923611 L101.152733,21.1111111 Z M101.152733,18.2595486 C101.152733,18.8689267 101.02513,19.2595478 100.76992,19.4314236 C100.488669,19.6032995 100.006903,19.6840278 99.3246075,19.6736111 C98.7829381,19.6736111 98.3949212,19.5668413 98.160545,19.3532986 C97.9157521,19.1605893 97.7933575,18.9262167 97.7933575,18.6501736 C97.7829408,18.0199621 98.2516861,17.6944445 99.1996075,17.6736111 L101.152733,17.6736111 L101.152733,18.2595486 Z M106.470441,18.6345486 L105.329816,19.7517361 C106.387113,20.720491 107.577205,21.2048611 108.900128,21.2048611 C109.874091,21.1944444 110.673563,20.9704883 111.298566,20.5329861 C111.928777,20.1059006 112.249087,19.4991359 112.259503,18.7126736 C112.259503,18.0407953 112.085026,17.4861133 111.736066,17.0486111 C111.361064,16.6006922 110.751695,16.3454864 109.907941,16.2829861 L108.564191,16.1814236 C108.168355,16.1397567 107.892317,16.0434035 107.736066,15.8923611 C107.56419,15.7569438 107.483462,15.5980912 107.493878,15.4157986 C107.493878,15.1293388 107.600648,14.8949662 107.814191,14.7126736 C108.017317,14.530381 108.374084,14.4392361 108.884503,14.4392361 C109.332422,14.4392361 109.728252,14.5043396 110.072003,14.6345486 C110.420963,14.7803827 110.751689,14.9652767 111.064191,15.1892361 L112.072003,14.0095486 C111.676168,13.6657969 111.228256,13.3923621 110.728253,13.1892361 C110.467835,13.0954856 110.189192,13.0225697 109.892316,12.9704861 C109.595439,12.9236109 109.259505,12.9001736 108.884503,12.9001736 C108.019916,12.9001736 107.306381,13.1085049 106.743878,13.5251736 C106.16575,13.9418424 105.871482,14.5668361 105.861066,15.4001736 C105.871482,16.0928854 106.095439,16.6319425 106.532941,17.0173611 C106.960026,17.4131964 107.514708,17.6423608 108.197003,17.7048611 L109.634503,17.8298611 C109.936588,17.8402778 110.178773,17.9053813 110.361066,18.0251736 C110.53815,18.1397575 110.626691,18.3428805 110.626691,18.6345486 C110.626691,18.9626753 110.478255,19.217881 110.181378,19.4001736 C109.884502,19.5824662 109.501693,19.6736111 109.032941,19.6736111 C107.986061,19.6736111 107.131902,19.3272604 106.470441,18.6345486 L106.470441,18.6345486 Z M115.335024,13.0017361 L114.522524,13.0017361 L114.522524,14.2439236 L115.335024,14.2439236 L115.335024,19.1111111 C115.335024,19.7517393 115.522522,20.2413178 115.897524,20.5798611 C116.262109,20.9340295 116.730854,21.1111111 117.303774,21.1111111 L118.155337,21.1111111 L118.155337,19.5720486 L117.545962,19.5720486 C117.150126,19.5824653 116.95742,19.3819465 116.967837,18.9704861 L116.967837,14.2439236 L118.155337,14.2439236 L118.155337,13.0017361 L116.967837,13.0017361 L116.967837,10.5329861 L115.335024,10.5329861 L115.335024,13.0017361 Z" id="★-Populärast" fill="#FFFFFF"></path>
            </g>
        </g>
    </g>
</svg>