<svg class="nc-icon glyph" xmlns="http://www.w3.org/2000/svg" xmlns:xlink="http://www.w3.org/1999/xlink" x="0px" y="0px" width="48px" height="48px" viewBox="0 0 48 48"><g>
<path fill="#444444" d="M24,0C10.7,0,0,10.7,0,24c0,13.3,10.7,24,24,24s24-10.7,24-24C48,10.7,37.3,0,24,0z M17.4,36h-5V20h5V36z
	 M14.9,17.8c-1.6,0-2.9-1.3-2.9-2.9c0-1.6,1.3-2.9,2.9-2.9c1.6,0,2.9,1.3,2.9,2.9C17.8,16.5,16.5,17.8,14.9,17.8z M36,36h-5v-7.8
	c0-1.9,0-4.2-2.6-4.2c-2.6,0-3,2-3,4.1V36h-5V20h4.8v2.2h0.1c0.7-1.3,2.3-2.6,4.7-2.6c5,0,6,3.3,6,7.6V36z"></path>
</g></svg>