<?xml version="1.0" encoding="UTF-8" standalone="no"?>
<svg width="60px" height="60px" viewBox="0 0 60 60" version="1.1" xmlns="http://www.w3.org/2000/svg" xmlns:xlink="http://www.w3.org/1999/xlink">
    <!-- Generator: Sketch 3.8.3 (29802) - http://www.bohemiancoding.com/sketch -->
    <title>desk</title>
    <desc>Created with Sketch.</desc>
    <defs></defs>
    <g id="Page-1" stroke="none" stroke-width="1" fill="none" fill-rule="evenodd">
        <g id="desk" fill="#FFF">
            <g id="Group">
                <path d="M59,25 L59,16 L56,16 L54,16 L51,16 L51,25 L44.209,25 L43.914,23 L49,23 L49,18 L49,16 L49,0 L11,0 L11,16 L11,18 L11,23 L15.931,23 L15.627,25 L0,25 L0,35 L1,35 L1,60 L6,60 L6,39 C6,36.794 7.794,35 10,35 L14.109,35 L14.067,35.276 C13.85,36.447 14.163,37.643 14.925,38.559 C15.687,39.474 16.806,39.999 17.997,39.999 L27,39.999 L27,42.999 L29,42.999 L29,44.999 L27,44.999 L27,46.203 L14.775,49.024 C14.745,49.031 14.724,49.051 14.696,49.06 C14.631,49.081 14.573,49.109 14.514,49.142 C14.458,49.174 14.406,49.206 14.358,49.247 C14.31,49.288 14.27,49.334 14.23,49.384 C14.189,49.435 14.153,49.485 14.123,49.543 C14.094,49.598 14.075,49.654 14.057,49.715 C14.037,49.781 14.023,49.845 14.017,49.915 C14.014,49.945 14,49.97 14,50 L14,51.051 C11.756,51.303 10,53.19 10,55.5 C10,57.981 12.019,60 14.5,60 C16.981,60 19,57.981 19,55.5 C19,53.547 17.742,51.898 16,51.276 L16,50.795 L27,48.257 L27,48.586 L24.578,51.008 C24.551,51.007 24.527,51 24.5,51 C22.019,51 20,53.019 20,55.5 C20,57.981 22.019,60 24.5,60 C26.981,60 29,57.981 29,55.5 C29,53.852 28.1,52.423 26.775,51.639 L28.414,50 L31.586,50 L33.225,51.639 C31.9,52.423 31,53.852 31,55.5 C31,57.981 33.019,60 35.5,60 C37.981,60 40,57.981 40,55.5 C40,53.019 37.981,51 35.5,51 C35.473,51 35.449,51.007 35.422,51.008 L33,48.586 L33,48.257 L44,50.795 L44,51.276 C42.258,51.897 41,53.547 41,55.5 C41,57.981 43.019,60 45.5,60 C47.981,60 50,57.981 50,55.5 C50,53.19 48.244,51.303 46,51.051 L46,50 C46,49.97 45.986,49.945 45.983,49.916 C45.977,49.846 45.963,49.782 45.943,49.716 C45.925,49.656 45.906,49.599 45.877,49.544 C45.847,49.486 45.811,49.436 45.77,49.385 C45.73,49.335 45.691,49.29 45.642,49.248 C45.594,49.207 45.542,49.175 45.486,49.143 C45.428,49.11 45.369,49.082 45.304,49.061 C45.276,49.052 45.254,49.032 45.225,49.025 L33,46.204 L33,45 L31,45 L31,43 L33,43 L33,40 L41.792,40 C42.983,40 44.103,39.475 44.864,38.56 C45.626,37.644 45.939,36.448 45.728,35.313 L45.682,35 L50,35 C52.206,35 54,36.794 54,39 L54,60 L59,60 L59,35 L60,35 L60,25 L59,25 L59,25 Z M17,55.5 C17,56.879 15.878,58 14.5,58 C13.122,58 12,56.879 12,55.5 C12,54.121 13.122,53 14.5,53 C15.878,53 17,54.121 17,55.5 L17,55.5 Z M24.5,58 C23.122,58 22,56.879 22,55.5 C22,54.121 23.122,53 24.5,53 C25.878,53 27,54.121 27,55.5 C27,56.879 25.878,58 24.5,58 L24.5,58 Z M38,55.5 C38,56.879 36.878,58 35.5,58 C34.122,58 33,56.879 33,55.5 C33,54.121 34.122,53 35.5,53 C36.878,53 38,54.121 38,55.5 L38,55.5 Z M48,55.5 C48,56.879 46.878,58 45.5,58 C44.122,58 43,56.879 43,55.5 C43,54.121 44.122,53 45.5,53 C46.878,53 48,54.121 48,55.5 L48,55.5 Z M29,47 L31,47 L31,48 L29,48 L29,47 L29,47 Z M56,18 L57,18 L57,25 L56,25 L56,18 L56,18 Z M53,18 L54,18 L54,25 L53,25 L53,18 L53,18 Z M47,21 L43.62,21 L43.179,18 L47,18 L47,21 L47,21 Z M13,2 L47,2 L47,16 L42.883,16 L41.891,9.27 C41.852,9.061 41.792,8.857 41.72,8.658 C41.698,8.597 41.673,8.539 41.649,8.48 C41.591,8.339 41.525,8.202 41.451,8.068 C41.421,8.014 41.393,7.959 41.36,7.906 C41.252,7.73 41.135,7.56 41,7.402 C40.995,7.396 40.989,7.392 40.984,7.387 C40.817,7.194 40.629,7.022 40.429,6.865 C40.361,6.812 40.289,6.767 40.218,6.718 C40.071,6.617 39.919,6.525 39.759,6.443 C39.676,6.401 39.594,6.362 39.509,6.326 C39.341,6.255 39.167,6.199 38.989,6.151 C38.91,6.13 38.835,6.104 38.755,6.088 C38.498,6.034 38.233,6 37.961,6 L21.946,6 C21.674,6 21.41,6.034 21.152,6.086 C21.07,6.102 20.993,6.129 20.913,6.151 C20.738,6.198 20.568,6.253 20.403,6.323 C20.312,6.361 20.225,6.403 20.138,6.448 C19.99,6.524 19.85,6.609 19.713,6.703 C19.629,6.76 19.544,6.814 19.464,6.877 C19.316,6.995 19.181,7.128 19.051,7.266 C19.005,7.314 18.95,7.351 18.907,7.402 C18.762,7.572 18.638,7.757 18.524,7.948 C18.51,7.972 18.497,7.997 18.483,8.022 C18.39,8.185 18.309,8.355 18.24,8.532 C18.223,8.574 18.206,8.616 18.19,8.659 C18.116,8.866 18.053,9.079 18.012,9.302 L16.994,16 L13,16 L13,2 L13,2 Z M13,18 L16.69,18 L16.234,21 L13,21 L13,18 L13,18 Z M10,33 C6.691,33 4,35.691 4,39 L4,58 L3,58 L3,33 L2,33 L2,27 L15.324,27 L14.413,33 L10,33 L10,33 Z M31,41 L29,41 L29,40 L31,40 L31,41 L31,41 Z M43.756,35.64 C43.864,36.225 43.708,36.823 43.328,37.281 C42.947,37.738 42.388,38.001 41.793,38.001 L33,38.001 L27,38.001 L17.998,38.001 C17.403,38.001 16.844,37.738 16.463,37.281 C16.083,36.823 15.926,36.225 16.04,35.609 L16.634,31.697 L17.65,25 L17.65,25 L17.954,23 L17.955,23 L18.919,16.646 L19.984,9.633 C20.012,9.479 20.065,9.333 20.127,9.191 C20.143,9.155 20.16,9.12 20.177,9.086 C20.245,8.953 20.324,8.825 20.421,8.71 C20.428,8.701 20.436,8.693 20.444,8.684 C20.526,8.591 20.616,8.508 20.711,8.432 C20.746,8.404 20.785,8.38 20.822,8.355 C20.894,8.306 20.968,8.261 21.045,8.222 C21.087,8.2 21.13,8.18 21.174,8.162 C21.257,8.127 21.343,8.099 21.43,8.076 C21.47,8.065 21.509,8.052 21.55,8.043 C21.68,8.017 21.812,8 21.946,8 L37.961,8 C38.096,8 38.229,8.017 38.358,8.043 C38.397,8.051 38.434,8.064 38.472,8.074 C38.563,8.098 38.653,8.127 38.74,8.164 C38.778,8.18 38.815,8.197 38.851,8.216 C38.943,8.262 39.032,8.315 39.117,8.375 C39.138,8.39 39.16,8.403 39.181,8.419 C39.289,8.502 39.39,8.595 39.48,8.7 C39.588,8.826 39.677,8.967 39.749,9.111 C39.756,9.125 39.763,9.14 39.77,9.154 C39.839,9.3 39.891,9.449 39.918,9.596 L40.862,16 L40.862,16 L41.893,23 L41.893,23 L42.188,25 L42.187,25 L43.661,35 L43.661,35 L43.756,35.64 L43.756,35.64 Z M58,33 L57,33 L57,58 L56,58 L56,39 C56,35.691 53.309,33 50,33 L45.388,33 L45.167,31.501 L44.504,27 L51,27 L54,27 L56,27 L58,27 L58,33 L58,33 Z" id="Shape"></path>
                <path d="M12,29 L5,29 C4.448,29 4,29.447 4,30 C4,30.553 4.448,31 5,31 L12,31 C12.552,31 13,30.553 13,30 C13,29.447 12.552,29 12,29 L12,29 Z" id="Shape"></path>
                <path d="M55,29 L48,29 C47.447,29 47,29.447 47,30 C47,30.553 47.447,31 48,31 L55,31 C55.553,31 56,30.553 56,30 C56,29.447 55.553,29 55,29 L55,29 Z" id="Shape"></path>
            </g>
        </g>
    </g>
</svg>