<?xml version="1.0" encoding="UTF-8" standalone="no"?>
<svg width="43px" height="57px" viewBox="0 0 43 57" version="1.1" xmlns="http://www.w3.org/2000/svg" xmlns:xlink="http://www.w3.org/1999/xlink">
    <!-- Generator: Sketch 3.8.3 (29802) - http://www.bohemiancoding.com/sketch -->
    <title>desk-chair</title>
    <desc>Created with Sketch.</desc>
    <defs></defs>
    <g id="Page-1" stroke="none" stroke-width="1" fill="none" fill-rule="evenodd">
        <g id="desk-chair" fill="#FFFFFF">
            <g id="Group">
                <path d="M37,22 L37,24 L39,24 L39,31.54 L36.863,33.372 C35.854,31.044 29.26,30.322 25,30.099 L25,27 L33,27 C33.279,27 33.546,26.883 33.734,26.678 C33.923,26.473 34.019,26.198 33.997,25.92 L31.997,0.92 C31.955,0.4 31.521,0 31,0 L12,0 C11.479,0 11.045,0.4 11.003,0.92 L9.003,25.92 C8.981,26.198 9.076,26.473 9.266,26.678 C9.454,26.883 9.721,27 10,27 L18,27 L18,30.099 C13.729,30.322 7.115,31.047 6.13,33.389 L3.985,31.55 L3.985,24.01 C3.985,24.007 3.983,24.004 3.983,24 L6,24 L6,22 L0,22 L0,24 L1.987,24 C1.987,24.003 1.985,24.006 1.985,24.01 L1.985,32.01 C1.985,32.302 2.113,32.579 2.335,32.769 L5.835,35.769 C5.885,35.812 5.945,35.834 6,35.865 L6,40 C6,40.552 6.447,41 7,41 L18,41 L18,47.245 C14.769,47.655 12.001,48.592 11.225,50.114 C9.947,50.459 9,51.616 9,53 C9,54.654 10.346,56 12,56 C13.654,56 15,54.654 15,53 C15,51.943 14.448,51.017 13.62,50.482 C14.784,49.835 17.575,49 22,49 C25.865,49 28.477,49.637 29.855,50.229 C28.767,50.681 28,51.751 28,53 C28,54.654 29.346,56 31,56 C32.654,56 34,54.654 34,53 C34,52.102 33.595,51.304 32.968,50.754 C32.697,48.681 29.084,47.511 25,47.136 L25,41 L36,41 C36.553,41 37,40.552 37,40 L37,35.847 C37.05,35.818 37.105,35.798 37.15,35.759 L40.65,32.759 C40.872,32.569 41,32.292 41,32 L41,24 L43,24 L43,22 L37,22 L37,22 Z M12.923,2 L30.077,2 L31.917,25 L24,25 L19,25 L11.083,25 L12.923,2 L12.923,2 Z M20,30 L20,27 L23,27 L23,30 L20,30 L20,30 Z M12,54 C11.448,54 11,53.551 11,53 C11,52.456 11.438,52.015 11.98,52.004 C11.987,52.004 11.992,52.008 11.999,52.008 C12.006,52.008 12.012,52.004 12.019,52.004 C12.562,52.015 13,52.455 13,53 C13,53.551 12.552,54 12,54 L12,54 Z M31,54 C30.448,54 30,53.551 30,53 C30,52.449 30.448,52 31,52 C31.552,52 32,52.449 32,53 C32,53.551 31.552,54 31,54 L31,54 Z M23,47 L20,47 L20,41 L23,41 L23,47 L23,47 Z M35,39 L24,39 L19,39 L8,39 L8,34.098 C8.606,33.363 13.164,32 21.5,32 C29.836,32 34.395,33.363 35,34.098 L35,39 L35,39 Z" id="Shape"></path>
                <path d="M21.5,50 C19.57,50 18,51.57 18,53.5 C18,55.43 19.57,57 21.5,57 C23.43,57 25,55.43 25,53.5 C25,51.57 23.43,50 21.5,50 L21.5,50 Z M21.5,55 C20.673,55 20,54.327 20,53.5 C20,52.673 20.673,52 21.5,52 C22.327,52 23,52.673 23,53.5 C23,54.327 22.327,55 21.5,55 L21.5,55 Z" id="Shape"></path>
                <rect id="Rectangle-path" x="17" y="6" width="9" height="2"></rect>
                <rect id="Rectangle-path" x="17" y="12" width="9" height="2"></rect>
                <rect id="Rectangle-path" x="17" y="19" width="9" height="2"></rect>
            </g>
        </g>
    </g>
</svg>