<?xml version="1.0" encoding="UTF-8"?>
<svg width="471px" height="471px" viewBox="0 0 471 471" version="1.1" xmlns="http://www.w3.org/2000/svg" xmlns:xlink="http://www.w3.org/1999/xlink">
    <!-- Generator: Sketch 40.3 (33839) - http://www.bohemiancoding.com/sketch -->
    <title>pencil</title>
    <desc>Created with Sketch.</desc>
    <defs></defs>
    <g id="Page-1" stroke="none" stroke-width="1" fill="none" fill-rule="evenodd">
        <g id="pencil" fill="#FFFFFF">
            <g id="Group">
                <path d="M85.283,62.802 C79.274,62.802 73.623,65.142 69.373,69.392 C60.602,78.164 60.602,92.439 69.374,101.212 C73.624,105.461 79.274,107.801 85.284,107.802 C91.293,107.801 96.943,105.461 101.194,101.211 C109.965,92.439 109.965,78.164 101.193,69.391 C96.943,65.142 91.293,62.801 85.283,62.802 L85.283,62.802 Z M90.587,90.604 C89.17,92.021 87.286,92.801 85.283,92.801 C83.279,92.801 81.395,92.021 79.979,90.605 C77.055,87.68 77.055,82.921 79.978,79.998 C81.395,78.581 83.279,77.802 85.283,77.802 C87.286,77.802 89.17,78.581 90.586,79.997 C93.51,82.922 93.51,87.681 90.587,90.604 L90.587,90.604 Z" id="Shape"></path>
                <path d="M400.63,400.647 C409.401,391.875 409.401,377.6 400.629,368.827 C396.379,364.578 390.729,362.238 384.72,362.238 C378.71,362.238 373.06,364.578 368.809,368.828 C360.038,377.6 360.038,391.875 368.81,400.648 C373.06,404.897 378.71,407.238 384.72,407.238 C390.729,407.238 396.379,404.897 400.63,400.647 L400.63,400.647 Z M379.416,379.435 C380.833,378.018 382.717,377.239 384.721,377.239 C386.724,377.239 388.608,378.018 390.024,379.434 C392.948,382.359 392.948,387.118 390.025,390.041 C388.608,391.458 386.724,392.238 384.721,392.238 C382.717,392.238 380.833,391.458 379.417,390.042 C376.493,387.117 376.493,382.358 379.416,379.435 L379.416,379.435 Z" id="Shape"></path>
                <path d="M127.168,229.717 C128.633,231.181 130.553,231.913 132.472,231.913 C134.391,231.913 136.311,231.181 137.776,229.717 C140.705,226.787 140.705,222.039 137.776,219.11 L18.108,99.443 L99.425,18.126 L152.457,71.159 L129.476,94.139 C126.547,97.069 126.547,101.817 129.476,104.746 C130.941,106.21 132.861,106.942 134.78,106.942 C136.699,106.942 138.619,106.21 140.084,104.746 L163.065,81.766 L183.122,101.824 L160.142,124.804 C157.213,127.734 157.213,132.482 160.142,135.411 C161.607,136.875 163.527,137.607 165.446,137.607 C167.365,137.607 169.285,136.875 170.75,135.411 L193.73,112.431 L213.788,132.489 L190.808,155.469 C187.879,158.399 187.879,163.147 190.808,166.076 C192.273,167.54 194.193,168.272 196.112,168.272 C198.031,168.272 199.951,167.54 201.416,166.076 L229.7,137.792 C232.629,134.862 232.629,130.114 229.7,127.185 L104.729,2.216 C101.799,-0.712 97.051,-0.712 94.122,2.216 L2.198,94.14 C-0.731,97.07 -0.731,101.818 2.198,104.747 L127.168,229.717 L127.168,229.717 Z" id="Shape"></path>
                <path d="M342.836,240.322 C339.906,237.394 335.158,237.394 332.229,240.322 L303.945,268.606 C301.016,271.536 301.016,276.284 303.945,279.213 C305.41,280.677 307.33,281.409 309.249,281.409 C311.168,281.409 313.088,280.677 314.553,279.213 L337.533,256.233 L357.591,276.291 L334.611,299.271 C331.682,302.201 331.682,306.949 334.611,309.878 C336.076,311.342 337.996,312.074 339.915,312.074 C341.834,312.074 343.754,311.342 345.219,309.878 L368.199,286.898 L388.257,306.956 L365.276,329.936 C362.347,332.866 362.347,337.614 365.276,340.543 C366.741,342.007 368.661,342.739 370.58,342.739 C372.499,342.739 374.419,342.007 375.884,340.543 L398.865,317.563 L451.898,370.595 L370.581,451.912 L250.912,332.246 C247.982,329.318 243.234,329.318 240.305,332.246 C237.376,335.176 237.376,339.924 240.305,342.853 L365.275,467.823 C366.74,469.287 368.66,470.019 370.579,470.019 C372.498,470.019 374.418,469.287 375.883,467.823 L467.807,375.899 C470.736,372.969 470.736,368.221 467.807,365.292 L342.836,240.322 L342.836,240.322 Z" id="Shape"></path>
                <path d="M397.34,153.999 C397.356,153.983 459.055,92.283 459.055,92.283 C473.675,77.662 473.675,53.871 459.055,39.25 L430.771,10.966 C416.15,-3.653 392.36,-3.657 377.737,10.966 L363.593,25.11 C360.664,28.04 360.664,32.788 363.593,35.717 C366.523,38.645 371.271,38.645 374.2,35.717 L388.343,21.573 C397.116,12.801 411.39,12.801 420.163,21.573 L448.447,49.857 C457.219,58.629 457.219,72.904 448.447,81.676 L418.395,111.729 L352.988,46.322 C350.058,43.394 345.31,43.394 342.381,46.322 L316.039,72.664 C316.021,72.682 51.695,337.008 51.695,337.008 C51.68,337.023 51.668,337.039 51.653,337.055 C51.59,337.119 51.532,337.188 51.472,337.255 C50.88,337.902 50.399,338.643 50.064,339.456 L21.192,409.572 C21.182,409.596 21.172,409.62 21.163,409.643 L0.565,459.665 C-0.587,462.465 0.056,465.683 2.197,467.824 C3.633,469.259 5.551,470.02 7.503,470.02 C8.464,470.02 9.433,469.835 10.357,469.456 L60.384,448.856 C60.403,448.848 60.422,448.84 60.442,448.833 L130.566,419.958 C131.383,419.621 132.127,419.137 132.777,418.541 C132.84,418.484 132.904,418.43 132.965,418.371 C132.981,418.355 132.999,418.342 133.015,418.326 L397.34,153.999 L397.34,153.999 Z M130.295,399.829 C128.277,396.386 125.806,393.178 122.931,390.302 C117.051,384.422 109.919,380.327 102.361,378.268 L298.353,182.276 C301.282,179.346 301.282,174.598 298.353,171.669 C295.423,168.741 290.675,168.741 287.746,171.669 L91.754,367.66 C89.694,360.101 85.599,352.97 79.719,347.09 C76.843,344.215 73.635,341.744 70.191,339.726 L321.334,88.584 L346.082,113.332 L316.03,143.384 C313.101,146.314 313.101,151.062 316.03,153.991 C317.495,155.455 319.415,156.187 321.334,156.187 C323.253,156.187 325.173,155.455 326.638,153.991 L356.69,123.939 L381.439,148.687 L130.295,399.829 L130.295,399.829 Z M59.356,433.057 L36.964,410.666 L61.17,351.881 C64.058,353.377 66.746,355.33 69.112,357.697 C76.2,364.784 79.484,374.408 77.896,383.439 C77.472,385.848 78.25,388.312 79.979,390.042 C81.708,391.771 84.173,392.549 86.582,392.125 C95.614,390.537 105.237,393.822 112.324,400.909 C114.691,403.275 116.644,405.963 118.14,408.851 L59.356,433.057 L59.356,433.057 Z M347.685,62.232 L407.789,122.336 L392.044,138.08 L331.94,77.976 L347.685,62.232 L347.685,62.232 Z M30.776,425.692 L44.328,439.245 L21.289,448.731 L30.776,425.692 L30.776,425.692 Z" id="Shape"></path>
            </g>
        </g>
    </g>
</svg>