<?xml version="1.0" encoding="UTF-8" standalone="no"?>
<svg width="366px" height="431px" viewBox="0 0 366 431" version="1.1" xmlns="http://www.w3.org/2000/svg" xmlns:xlink="http://www.w3.org/1999/xlink">
    <!-- Generator: Sketch 3.8.3 (29802) - http://www.bohemiancoding.com/sketch -->
    <title>Artboard 1</title>
    <desc>Created with Sketch.</desc>
    <defs>
        <rect id="path-1" x="-3" y="8" width="20" height="4"></rect>
        <mask id="mask-2" maskContentUnits="userSpaceOnUse" maskUnits="objectBoundingBox" x="0" y="0" width="20" height="4" fill="white">
            <use xlink:href="#path-1"></use>
        </mask>
        <rect id="path-3" x="-7" y="7" width="20" height="6"></rect>
        <mask id="mask-4" maskContentUnits="userSpaceOnUse" maskUnits="objectBoundingBox" x="0" y="0" width="20" height="6" fill="white">
            <use xlink:href="#path-3"></use>
        </mask>
        <rect id="path-5" x="-3.6739404e-16" y="8" width="20" height="4"></rect>
        <mask id="mask-6" maskContentUnits="userSpaceOnUse" maskUnits="objectBoundingBox" x="0" y="0" width="20" height="4" fill="white">
            <use xlink:href="#path-5"></use>
        </mask>
        <rect id="path-7" x="-5.5" y="10.5" width="25" height="4"></rect>
        <mask id="mask-8" maskContentUnits="userSpaceOnUse" maskUnits="objectBoundingBox" x="0" y="0" width="25" height="4" fill="white">
            <use xlink:href="#path-7"></use>
        </mask>
        <rect id="path-9" x="-9.5" y="9.5" width="25" height="6"></rect>
        <mask id="mask-10" maskContentUnits="userSpaceOnUse" maskUnits="objectBoundingBox" x="0" y="0" width="25" height="6" fill="white">
            <use xlink:href="#path-9"></use>
        </mask>
        <rect id="path-11" x="4" y="22" width="7" height="15"></rect>
        <mask id="mask-12" maskContentUnits="userSpaceOnUse" maskUnits="objectBoundingBox" x="0" y="0" width="7" height="15" fill="white">
            <use xlink:href="#path-11"></use>
        </mask>
        <rect id="path-13" x="0.5" y="12.5" width="14" height="15"></rect>
        <mask id="mask-14" maskContentUnits="userSpaceOnUse" maskUnits="objectBoundingBox" x="0" y="0" width="14" height="15" fill="white">
            <use xlink:href="#path-13"></use>
        </mask>
        <rect id="path-15" x="0.5" y="-0.5" width="14" height="15"></rect>
        <mask id="mask-16" maskContentUnits="userSpaceOnUse" maskUnits="objectBoundingBox" x="0" y="0" width="14" height="15" fill="white">
            <use xlink:href="#path-15"></use>
        </mask>
    </defs>
    <g id="Page-1" stroke="none" stroke-width="1" fill="none" fill-rule="evenodd">
        <g id="Artboard-1">
            <rect id="Rectangle-1" fill="#3C3C3C" x="77" y="326" width="5" height="80"></rect>
            <rect id="Rectangle-1-Copy-6" fill="#3C3C3C" x="131" y="350" width="1" height="51"></rect>
            <rect id="Rectangle-1-Copy-36" fill="#3C3C3C" x="189" y="156" width="1" height="40"></rect>
            <rect id="Rectangle-1-Copy-37" fill="#3C3C3C" transform="translate(194.683013, 143.771631) rotate(-30.000000) translate(-194.683013, -143.771631) " x="194.183013" y="133.271631" width="1" height="21"></rect>
            <rect id="Rectangle-1-Copy-46" fill="#3C3C3C" transform="translate(188.563018, 367.410254) rotate(-330.000000) translate(-188.563018, -367.410254) " x="188.063018" y="357.410254" width="1" height="20"></rect>
            <rect id="Rectangle-1-Copy-13" fill="#3C3C3C" x="258" y="325" width="5" height="76"></rect>
            <rect id="Rectangle-1-Copy-9" fill="#3C3C3C" x="189" y="201" width="5" height="61"></rect>
            <rect id="Rectangle-1-Copy-10" fill="#3C3C3C" x="189" y="282" width="5" height="55"></rect>
            <rect id="Rectangle-1-Copy-7" fill="#3C3C3C" x="193" y="379" width="1" height="22"></rect>
            <rect id="Rectangle-1-Copy-8" fill="#3C3C3C" x="193" y="337" width="1" height="22"></rect>
            <rect id="Rectangle-1-Copy-8" fill="#3C3C3C" transform="translate(178.000000, 336.500000) rotate(-270.000000) translate(-178.000000, -336.500000) " x="177.5" y="325.5" width="1" height="22"></rect>
            <rect id="Rectangle-1-Copy-44" fill="#3C3C3C" transform="translate(94.576904, 412.654785) rotate(-240.000000) translate(-94.576904, -412.654785) " x="94.0769043" y="397.654785" width="1" height="30"></rect>
            <rect id="Rectangle-1-Copy-45" fill="#3C3C3C" transform="translate(121.500000, 405.500000) rotate(-270.000000) translate(-121.500000, -405.500000) " x="121" y="396" width="1" height="19"></rect>
            <rect id="Rectangle-1-Copy-11" fill="#3C3C3C" transform="translate(205.000000, 322.500000) rotate(-270.000000) translate(-205.000000, -322.500000) " x="202.5" y="311.5" width="5" height="22"></rect>
            <rect id="Rectangle-1-Copy-12" fill="#3C3C3C" transform="translate(252.000000, 322.500000) rotate(-270.000000) translate(-252.000000, -322.500000) " x="249.5" y="311.5" width="5" height="22"></rect>
            <rect id="Rectangle-1-Copy-14" fill="#3C3C3C" transform="translate(307.000000, 353.500000) rotate(-270.000000) translate(-307.000000, -353.500000) " x="304.5" y="309.5" width="5" height="88"></rect>
            <rect id="Rectangle-1" fill="#3C3C3C" transform="translate(141.000000, 403.500000) rotate(-270.000000) translate(-141.000000, -403.500000) " x="138.5" y="393.5" width="5" height="20"></rect>
            <rect id="Rectangle-1" fill="#3C3C3C" transform="translate(194.000000, 403.500000) rotate(-270.000000) translate(-194.000000, -403.500000) " x="191.5" y="390.5" width="5" height="26"></rect>
            <rect id="Rectangle-1" fill="#3C3C3C" transform="translate(250.000000, 403.500000) rotate(-270.000000) translate(-250.000000, -403.500000) " x="247.5" y="390.5" width="5" height="26"></rect>
            <g id="window" transform="translate(151.000000, 400.500000)" fill="#BEBEBE">
                <rect id="Rectangle-1-Copy" transform="translate(15.000000, 3.000000) rotate(-270.000000) translate(-15.000000, -3.000000) " x="14.5" y="-12" width="1" height="30"></rect>
            </g>
            <g id="window-copy" transform="translate(207.000000, 400.500000)" fill="#BFBFBF">
                <rect id="Rectangle-1-Copy" transform="translate(15.000000, 3.000000) rotate(-270.000000) translate(-15.000000, -3.000000) " x="14.5" y="-12" width="1" height="30"></rect>
            </g>
            <rect id="Rectangle-1" fill="#3C3C3C" transform="translate(93.000000, 198.500000) rotate(-270.000000) translate(-93.000000, -198.500000) " x="90.5" y="187.5" width="5" height="22"></rect>
            <rect id="Rectangle-1-Copy-21" fill="#3C3C3C" transform="translate(39.000000, 158.500000) rotate(-270.000000) translate(-39.000000, -158.500000) " x="36.5" y="135.5" width="5" height="46"></rect>
            <rect id="Rectangle-1-Copy-24" fill="#3C3C3C" transform="translate(46.500000, 132.500000) rotate(-270.000000) translate(-46.500000, -132.500000) " x="44" y="102" width="5" height="61"></rect>
            <rect id="Rectangle-1-Copy-21" fill="#3C3C3C" transform="translate(35.500000, 170.000000) rotate(-180.000000) translate(-35.500000, -170.000000) " x="33" y="161" width="5" height="18"></rect>
            <rect id="Rectangle-1-Copy-25" fill="#3C3C3C" transform="translate(79.500000, 110.000000) rotate(-180.000000) translate(-79.500000, -110.000000) " x="77" y="80" width="5" height="60"></rect>
            <rect id="Rectangle-1-Copy-33" fill="#3C3C3C" transform="translate(248.500000, 105.399994) rotate(-180.000000) translate(-248.500000, -105.399994) " x="246" y="75.7999878" width="5" height="59.2000122"></rect>
            <rect id="Rectangle-1-Copy-39" fill="#3C3C3C" transform="translate(230.500000, 183.600006) rotate(-180.000000) translate(-230.500000, -183.600006) " x="228" y="171" width="5" height="25.2000122"></rect>
            <rect id="Rectangle-1-Copy-40" fill="#3C3C3C" transform="translate(230.500000, 143.000000) rotate(-180.000000) translate(-230.500000, -143.000000) " x="228" y="135" width="5" height="16"></rect>
            <rect id="Rectangle-1-Copy-48" fill="#3C3C3C" transform="translate(224.500000, 138.000000) rotate(-180.000000) translate(-224.500000, -138.000000) " x="221" y="134" width="7" height="8"></rect>
            <rect id="Rectangle-1-Copy-49" fill="#3C3C3C" transform="translate(224.500000, 193.000000) rotate(-180.000000) translate(-224.500000, -193.000000) " x="221" y="189" width="7" height="8"></rect>
            <rect id="Rectangle-1-Copy-29" fill="#3C3C3C" transform="translate(258.321302, 42.658642) rotate(-263.000000) translate(-258.321302, -42.658642) " x="255.821302" y="34.1586415" width="5" height="17"></rect>
            <rect id="Rectangle-1-Copy-31" fill="#3C3C3C" transform="translate(256.475312, 61.461264) rotate(-263.000000) translate(-256.475312, -61.461264) " x="253.975312" y="53.4206953" width="5" height="16.0811379"></rect>
            <rect id="Rectangle-1-Copy-32" fill="#3C3C3C" transform="translate(249.842914, 67.549077) rotate(-351.000000) translate(-249.842914, -67.549077) " x="247.342914" y="58.7678107" width="5" height="17.5625328"></rect>
            <rect id="Rectangle-1-Copy-30" fill="#3C3C3C" transform="translate(252.983879, 35.850602) rotate(5.000000) translate(-252.983879, -35.850602) " x="250.483879" y="32.0132477" width="5" height="7.67470818"></rect>
            <rect id="Rectangle-1-Copy-47" fill="#3C3C3C" transform="translate(263.069901, 53.220238) rotate(7.000000) translate(-263.069901, -53.220238) " x="260.569901" y="45.3680769" width="5" height="15.7043221"></rect>
            <rect id="Rectangle-1-Copy-27" fill="#3C3C3C" transform="translate(161.000000, 16.500000) rotate(-90.000000) translate(-161.000000, -16.500000) " x="158.5" y="-13.5" width="5" height="60"></rect>
            <rect id="Rectangle-1-Copy-34" fill="#3C3C3C" transform="translate(125.500000, 132.500000) rotate(-90.000000) translate(-125.500000, -132.500000) " x="123" y="89" width="5" height="87"></rect>
            <rect id="Rectangle-1-Copy-35" fill="#3C3C3C" transform="translate(217.500000, 132.500000) rotate(-90.000000) translate(-217.500000, -132.500000) " x="215" y="104" width="5" height="57"></rect>
            <rect id="Rectangle-1-Copy-43" fill="#3C3C3C" transform="translate(258.500000, 132.500000) rotate(-90.000000) translate(-258.500000, -132.500000) " x="256" y="125" width="5" height="15"></rect>
            <rect id="Rectangle-1-Copy-42" fill="#3C3C3C" transform="translate(298.500000, 90.500000) rotate(-90.000000) translate(-298.500000, -90.500000) " x="296" y="43" width="5" height="95"></rect>
            <rect id="Rectangle-1-Copy-38" fill="#3C3C3C" transform="translate(163.583007, 143.410254) rotate(-330.000000) translate(-163.583007, -143.410254) " x="163.083007" y="133.410254" width="1" height="20"></rect>
            <rect id="Rectangle-1-Copy-38" fill="#3C3C3C" transform="translate(303.000000, 191.500000) rotate(-120.000000) translate(-303.000000, -191.500000) " x="302.5" y="181.5" width="1" height="20"></rect>
            <rect id="Rectangle-1-Copy-38" fill="#3C3C3C" transform="translate(237.433013, 159.410254) rotate(-30.000000) translate(-237.433013, -159.410254) " x="236.933013" y="149.410254" width="1" height="20"></rect>
            <rect id="Rectangle-1-Copy-38" fill="#3C3C3C" transform="translate(67.500000, 153.183013) rotate(-120.000000) translate(-67.500000, -153.183013) " x="67" y="145.683013" width="1" height="15"></rect>
            <rect id="Rectangle-1-Copy-28" fill="#3C3C3C" transform="translate(222.650020, 25.682499) rotate(-74.000000) translate(-222.650020, -25.682499) " x="220.15002" y="-7.98254871" width="5" height="67.3300954"></rect>
            <rect id="Rectangle-1-Copy-26" fill="#3C3C3C" transform="translate(135.586604, 47.501307) rotate(-184.000000) translate(-135.586604, -47.501307) " x="133.086604" y="17.5013066" width="5" height="60"></rect>
            <rect id="Rectangle-1-Copy-25" fill="#3C3C3C" transform="translate(107.081058, 78.637446) rotate(-97.000000) translate(-107.081058, -78.637446) " x="104.581058" y="48.6374457" width="5" height="60"></rect>
            <rect id="Rectangle-1-Copy-23" fill="#3C3C3C" transform="translate(18.500000, 145.500000) rotate(-180.000000) translate(-18.500000, -145.500000) " x="16" y="135" width="5" height="21"></rect>
            <rect id="Rectangle-1-Copy-22" fill="#3C3C3C" transform="translate(55.000000, 181.500000) rotate(-270.000000) translate(-55.000000, -181.500000) " x="52.5" y="159.5" width="5" height="44"></rect>
            <rect id="Rectangle-1" fill="#3C3C3C" transform="translate(151.500000, 198.500000) rotate(-270.000000) translate(-151.500000, -198.500000) " x="149" y="181" width="5" height="35"></rect>
            <rect id="Rectangle-1" fill="#3C3C3C" transform="translate(218.000000, 198.500000) rotate(-270.000000) translate(-218.000000, -198.500000) " x="215.5" y="169.5" width="5" height="58"></rect>
            <rect id="Rectangle-1-Copy-3" fill="#3C3C3C" transform="translate(281.000000, 198.500000) rotate(-270.000000) translate(-281.000000, -198.500000) " x="278.5" y="184.5" width="5" height="28"></rect>
            <rect id="Rectangle-1-Copy-4" fill="#3C3C3C" transform="translate(333.000000, 198.500000) rotate(-270.000000) translate(-333.000000, -198.500000) " x="330.5" y="180.5" width="5" height="36"></rect>
            <rect id="Rectangle-1" fill="#3C3C3C" x="77" y="156" width="5" height="170"></rect>
            <rect id="Rectangle-1-Copy-5" fill="#3C3C3C" x="346" y="201" width="5" height="150"></rect>
            <rect id="Rectangle-1-Copy-41" fill="#3C3C3C" x="346" y="88" width="5" height="108"></rect>
            <rect id="Rectangle-1" fill="#3C3C3C" transform="translate(87.500000, 343.000000) rotate(-270.000000) translate(-87.500000, -343.000000) " x="80" y="333" width="15" height="20"></rect>
            <rect id="Rectangle-1" fill="#3C3C3C" transform="translate(260.000000, 297.000000) rotate(-270.000000) translate(-260.000000, -297.000000) " x="257" y="294" width="6" height="6"></rect>
            <rect id="Rectangle-1-Copy-15" fill="#3C3C3C" transform="translate(260.000000, 246.000000) rotate(-270.000000) translate(-260.000000, -246.000000) " x="257" y="243" width="6" height="6"></rect>
            <g id="stairs" transform="translate(189.000000, 262.000000)" stroke="#BEBEBE" stroke-width="2">
                <use id="Rectangle-1-Copy-15" mask="url(#mask-2)" transform="translate(7.000000, 10.000000) rotate(-270.000000) translate(-7.000000, -10.000000) " xlink:href="#path-1"></use>
                <use id="Rectangle-1-Copy-19" mask="url(#mask-4)" transform="translate(3.000000, 10.000000) rotate(-270.000000) translate(-3.000000, -10.000000) " xlink:href="#path-3"></use>
                <use id="Rectangle-1-Copy-18" mask="url(#mask-6)" transform="translate(10.000000, 10.000000) rotate(-270.000000) translate(-10.000000, -10.000000) " xlink:href="#path-5"></use>
            </g>
            <g id="stairs" transform="translate(228.500000, 320.500000) rotate(-90.000000) translate(-228.500000, -320.500000) translate(224.000000, 308.000000)" stroke="#BEBEBE" stroke-width="2">
                <use id="Rectangle-1-Copy-15" mask="url(#mask-8)" transform="translate(7.000000, 12.500000) rotate(-270.000000) translate(-7.000000, -12.500000) " xlink:href="#path-7"></use>
                <use id="Rectangle-1-Copy-19" mask="url(#mask-10)" transform="translate(3.000000, 12.500000) rotate(-270.000000) translate(-3.000000, -12.500000) " xlink:href="#path-9"></use>
            </g>
            <rect id="Rectangle-1-Copy-16" fill="#3C3C3C" transform="translate(318.000000, 246.000000) rotate(-270.000000) translate(-318.000000, -246.000000) " x="315" y="243" width="6" height="6"></rect>
            <rect id="Rectangle-1-Copy-17" fill="#3C3C3C" transform="translate(318.000000, 297.000000) rotate(-270.000000) translate(-318.000000, -297.000000) " x="315" y="294" width="6" height="6"></rect>
            <g id="window" transform="translate(104.000000, 195.500000)" fill="#BEBEBE">
                <rect id="Rectangle-1-Copy" transform="translate(15.000000, 3.000000) rotate(-270.000000) translate(-15.000000, -3.000000) " x="14.5" y="-12" width="1" height="30"></rect>
            </g>
            <g id="window" transform="translate(247.000000, 195.500000)" fill="#BEBEBE">
                <polyline id="Rectangle-1-Copy" points="20 2.5 20 3.5 7.10542736e-15 3.5 7.10542736e-15 2.5 20 2.5"></polyline>
            </g>
            <g id="kitchen" transform="translate(81.000000, 164.000000)" stroke="#3C3C3C" stroke-width="2">
                <use id="Rectangle-1-Copy-15" mask="url(#mask-12)" transform="translate(7.500000, 29.500000) rotate(-270.000000) translate(-7.500000, -29.500000) " xlink:href="#path-11"></use>
                <use id="Rectangle-1-Copy-20" mask="url(#mask-14)" transform="translate(7.500000, 20.000000) rotate(-270.000000) translate(-7.500000, -20.000000) " xlink:href="#path-13"></use>
                <use id="Rectangle-1-Copy-20" mask="url(#mask-16)" transform="translate(7.500000, 7.000000) rotate(-270.000000) translate(-7.500000, -7.000000) " xlink:href="#path-15"></use>
            </g>
            <g id="toilet" transform="translate(44.000000, 166.000000)" fill="#3C3C3C">
                <g id="Capa_1">
                    <g id="XMLID_326_">
                        <path d="M7.78969819,1.57143961 C8.23778672,1.57143961 8.60088531,1.22309179 8.60088531,0.793024155 C8.60088531,0.362666667 8.2377666,0.0143188406 7.78969819,0.0143188406 C7.34185111,0.0143188406 6.97909457,0.362666667 6.97909457,0.793024155 C6.97909457,1.22309179 7.34185111,1.57143961 7.78969819,1.57143961 L7.78969819,1.57143961 Z" id="XMLID_331_"></path>
                        <path d="M9.96255533,4.35335266 L8.8061167,1.92057971 C8.74366197,1.78813527 8.6021328,1.73091787 8.45867203,1.73091787 C7.95927565,1.73091787 7.66961771,1.73074396 7.12094567,1.73074396 C6.97748491,1.73074396 6.83599598,1.78796135 6.77331992,1.92057971 L5.61716298,4.35335266 C5.53738431,4.5207343 5.61422535,4.71828019 5.78830986,4.79464734 C5.83507042,4.81499517 5.88404427,4.82483092 5.93203219,4.82483092 C6.06380282,4.82483092 6.18979879,4.75244444 6.24780684,4.62993237 L6.80688129,3.45337198 L6.80688129,4.72079227 C6.80688129,4.72299517 6.80569416,4.72492754 6.80569416,4.72714976 L6.80569416,7.59963285 C6.80569416,7.82042512 6.99197183,7.99930435 7.22173038,7.99930435 C7.45156942,7.99930435 7.6377666,7.82042512 7.6377666,7.59963285 L7.6377666,5.21824155 L7.94156942,5.21824155 L7.94156942,7.59963285 C7.94156942,7.82042512 8.12778672,7.99930435 8.35758551,7.99930435 C8.58734406,7.99930435 8.77362173,7.82042512 8.77362173,7.59963285 L8.77362173,4.72714976 C8.77362173,4.7253913 8.77273642,4.72413527 8.77273642,4.72237681 L8.77273642,3.45337198 L9.33187123,4.62993237 C9.38979879,4.75242512 9.51587525,4.82483092 9.64744467,4.82483092 C9.69549296,4.82483092 9.74460765,4.81499517 9.79144869,4.79464734 C9.96549296,4.71828019 10.0422535,4.5207343 9.96255533,4.35335266 L9.96255533,4.35335266 Z" id="XMLID_330_"></path>
                        <path d="M2.20430584,1.57143961 C2.65219316,1.57143961 3.01496982,1.22309179 3.01496982,0.793024155 C3.01496982,0.362666667 2.65219316,0.0143188406 2.20430584,0.0143188406 C1.7562173,0.0143188406 1.39327968,0.362666667 1.39327968,0.793024155 C1.39327968,1.22309179 1.7562173,1.57143961 2.20430584,1.57143961 L2.20430584,1.57143961 Z" id="XMLID_329_"></path>
                        <path d="M3.22066398,1.92059903 C3.16358149,1.80015459 3.04050302,1.73076329 2.91120724,1.72838647 L1.49645875,1.72827053 C1.36714286,1.73078261 1.24480885,1.80015459 1.1878672,1.92061836 L0.0315090543,4.35335266 C-0.0482092555,4.5207343 0.0285714286,4.71828019 0.202615694,4.79464734 C0.249416499,4.81499517 0.298531187,4.82483092 0.346559356,4.82483092 C0.478169014,4.82483092 0.604205231,4.75244444 0.662173038,4.62993237 L1.02199195,3.87285024 L0.708672032,5.28948792 C0.69806841,5.33721739 0.710583501,5.3868599 0.742434608,5.42475362 C0.774507042,5.46270531 0.82249497,5.484657 0.873158954,5.484657 L1.22042254,5.484657 L1.22042254,7.59961353 C1.22042254,7.8204058 1.40665996,7.99928502 1.63647887,7.99928502 C1.86625755,7.99928502 2.05251509,7.8204058 2.05251509,7.59961353 L2.05251509,5.48467633 L2.35627767,5.48467633 L2.35627767,7.59963285 C2.35627767,7.82042512 2.54255533,7.99930435 2.772334,7.99930435 C3.00211268,7.99930435 3.18837022,7.82042512 3.18837022,7.59963285 L3.18837022,5.48467633 L3.53442656,5.48467633 C3.58507042,5.48467633 3.63311871,5.46272464 3.66498994,5.42477295 C3.69698189,5.38687923 3.70955734,5.33721739 3.69891348,5.28950725 L3.38488934,3.86937198 L3.74623742,4.62993237 C3.80424547,4.75242512 3.93026157,4.82483092 4.06201207,4.82483092 C4.1101006,4.82483092 4.15897384,4.81499517 4.20579477,4.79464734 C4.3798994,4.71828019 4.45665996,4.5207343 4.37692153,4.35335266 L3.22066398,1.92059903 L3.22066398,1.92059903 Z" id="XMLID_328_"></path>
                        <path d="M5.01748491,0.585797101 C4.86408451,0.585797101 4.74,0.70515942 4.74,0.852289855 L4.74,7.18521739 C4.74,7.33236715 4.86408451,7.45169082 5.01748491,7.45169082 C5.17082495,7.45169082 5.29496982,7.33236715 5.29496982,7.18521739 L5.29496982,0.852289855 C5.29496982,0.705178744 5.17082495,0.585797101 5.01748491,0.585797101 L5.01748491,0.585797101 Z" id="XMLID_327_"></path>
                    </g>
                </g>
            </g>
            <text id="K" font-family="DINAlternate-Bold, DIN Alternate" font-size="5" font-weight="bold" letter-spacing="0.416666627" fill="#1C1E22">
                <tspan x="86.7169597" y="173">K</tspan>
            </text>
            <text id="DM" font-family="DINAlternate-Bold, DIN Alternate" font-size="5" font-weight="bold" letter-spacing="0.416666627" fill="#1C1E22">
                <tspan x="84.6140951" y="186">DM</tspan>
            </text>
            <text id="Grottan" font-family="DINAlternate-Bold, DIN Alternate" font-size="8" font-weight="bold" letter-spacing="0.666666627" fill="#1C1E22">
                <tspan x="176.871745" y="80">Grottan</tspan>
            </text>
            <text id="Lounge/Coworking" font-family="DINAlternate-Bold, DIN Alternate" font-size="8" font-weight="bold" letter-spacing="0.666666627" fill="#1C1E22">
                <tspan x="98.307292" y="270">Lounge/Coworking</tspan>
            </text>
            <text id="Kök" font-family="DINAlternate-Bold, DIN Alternate" font-size="8" font-weight="bold" letter-spacing="0.666666627" fill="#1C1E22">
                <tspan x="120.904297" y="169">Kök</tspan>
            </text>
            <text id="Garderob" font-family="DINAlternate-Bold, DIN Alternate" font-size="8" font-weight="bold" letter-spacing="0.666666627" fill="#1C1E22">
                <tspan x="30.7727866" y="148">Garderob</tspan>
            </text>
            <text id="Ink" font-family="DINAlternate-Bold, DIN Alternate" font-size="8" font-weight="bold" letter-spacing="0.666666627" fill="#1C1E22">
                <tspan x="202.744141" y="159">Ink</tspan>
                <tspan x="206.518229" y="169">n</tspan>
                <tspan x="202.892578" y="179">Art</tspan>
            </text>
            <text id="Coworking" font-family="DINAlternate-Bold, DIN Alternate" font-size="8" font-weight="bold" letter-spacing="0.666666627" fill="#1C1E22">
                <tspan x="268.070313" y="274">Coworking</tspan>
            </text>
            <text id="Förråd" font-family="DINAlternate-Bold, DIN Alternate" font-size="8" font-weight="bold" letter-spacing="0.666666627" fill="#1C1E22">
                <tspan x="290.162109" y="151">Förråd</tspan>
            </text>
            <text id="Obestämt" font-family="DINAlternate-Bold, DIN Alternate" font-size="8" font-weight="bold" letter-spacing="0.666666627" fill="#1C1E22">
                <tspan x="207.266927" y="367">Obestämt</tspan>
            </text>
            <text id="Obestämt-Copy" font-family="DINAlternate-Bold, DIN Alternate" font-size="8" font-weight="bold" letter-spacing="0.666666627" fill="#1C1E22">
                <tspan x="143.766927" y="374">Obestämt</tspan>
            </text>
        </g>
    </g>
</svg>