<svg class="nc-icon glyph" xmlns="http://www.w3.org/2000/svg" xmlns:xlink="http://www.w3.org/1999/xlink" x="0px" y="0px" width="48px" height="48px" viewBox="0 0 48 48"><g>
<path fill="#444444" d="M24,0C10.745,0,0,10.745,0,24c0,13.255,10.745,24,24,24s24-10.745,24-24C48,10.745,37.255,0,24,0z
	 M35.928,28.948c-0.089,1.951-0.567,3.664-1.942,5.038c-1.375,1.375-3.089,1.853-5.038,1.942C27.668,35.986,27.259,36,24,36
	s-3.668-0.014-4.948-0.072c-1.951-0.089-3.664-0.567-5.038-1.942c-1.375-1.375-1.853-3.089-1.942-5.038
	C12.014,27.668,12,27.259,12,24s0.014-3.668,0.072-4.948c0.089-1.951,0.567-3.664,1.942-5.038c1.375-1.375,3.088-1.853,5.038-1.942
	C20.332,12.014,20.741,12,24,12s3.668,0.014,4.948,0.072c1.951,0.089,3.664,0.567,5.038,1.942c1.375,1.375,1.853,3.088,1.942,5.038
	C35.986,20.332,36,20.741,36,24S35.986,27.668,35.928,28.948z"></path>
<path fill="#444444" d="M32.457,15.543c-0.975-0.975-2.242-1.249-3.608-1.311c-1.265-0.058-1.645-0.07-4.849-0.07
	s-3.584,0.012-4.849,0.07c-1.366,0.062-2.633,0.336-3.608,1.311c-0.975,0.975-1.249,2.242-1.311,3.608
	c-0.058,1.265-0.07,1.645-0.07,4.849s0.012,3.584,0.07,4.849c0.062,1.366,0.336,2.633,1.311,3.608s2.242,1.249,3.608,1.311
	c1.265,0.058,1.645,0.07,4.849,0.07s3.584-0.012,4.849-0.07c1.366-0.062,2.633-0.336,3.608-1.311s1.249-2.242,1.311-3.608
	c0.058-1.265,0.07-1.645,0.07-4.849s-0.012-3.584-0.07-4.849C33.706,17.785,33.432,16.518,32.457,15.543z M24,30.162
	c-3.403,0-6.162-2.759-6.162-6.162s2.759-6.162,6.162-6.162s6.162,2.759,6.162,6.162S27.403,30.162,24,30.162z M30.406,19.034
	c-0.795,0-1.44-0.645-1.44-1.44s0.645-1.44,1.44-1.44s1.44,0.645,1.44,1.44S31.201,19.034,30.406,19.034z"></path>
<circle fill="#444444" cx="24" cy="24" r="4"></circle>
</g></svg>