<?xml version="1.0" encoding="UTF-8" standalone="no"?>
<svg width="807px" height="134px" viewBox="0 0 807 134" version="1.1" xmlns="http://www.w3.org/2000/svg" xmlns:xlink="http://www.w3.org/1999/xlink">
    <!-- Generator: Sketch 39 (31667) - http://www.bohemiancoding.com/sketch -->
    <title>Creative Loop</title>
    <desc>Created with Sketch.</desc>
    <defs></defs>
    <g id="Page-1" stroke="none" stroke-width="1" fill="none" fill-rule="evenodd">
        <g id="text-only" transform="translate(-7.000000, -31.000000)" fill="#FFFFFF">
            <path d="M63.7539063,106.3125 C59.4413847,115.640672 52.9258249,120.304688 44.2070313,120.304688 C40.550763,120.304688 37.4101694,119.531258 34.7851563,117.984375 C32.1132679,116.671868 29.9570395,114.960948 28.3164063,112.851562 C26.3007712,110.648426 24.9648471,107.765643 24.3085938,104.203125 C23.55859,100.640607 23.1835938,93.8203629 23.1835938,83.7421875 C23.1835938,73.6640121 23.55859,66.7968933 24.3085938,63.140625 C24.9648471,59.6718577 26.3007712,56.8359485 28.3164063,54.6328125 C29.9570395,52.523427 32.1132679,50.765632 34.7851563,49.359375 C37.4101694,47.9999932 40.550763,47.273438 44.2070313,47.1796875 C49.1758061,47.273438 53.394514,48.7031112 56.8632813,51.46875 C60.1914229,54.3750145 62.488275,57.8906044 63.7539063,62.015625 L80.2070313,62.015625 C78.5663981,53.4374571 74.6289375,46.2422166 68.3945313,40.4296875 C62.1601251,34.6640337 54.0977058,31.7343755 44.2070313,31.640625 C36.144491,31.7343755 29.4179958,33.6562312 24.0273438,37.40625 C18.5429414,41.1093935 14.5586062,45.3281013 12.0742188,50.0625 C10.5273361,52.5468874 9.37891005,55.8046673 8.6289063,59.8359375 C7.92577778,63.8672077 7.5742188,71.835878 7.5742188,83.7421875 C7.5742188,95.4609961 7.92577778,103.382792 8.6289063,107.507812 C9.00390817,109.710949 9.47265349,111.539055 10.0351563,112.992188 C10.6445343,114.398445 11.324215,115.874992 12.0742188,117.421875 C14.5586062,122.156274 18.5429414,126.328107 24.0273438,129.9375 C29.4179958,133.687519 36.144491,135.656249 44.2070313,135.84375 C53.1133258,135.84375 60.8241862,133.312525 67.3398438,128.25 C73.6680004,123.140599 77.95702,115.828173 80.2070313,106.3125 L63.7539063,106.3125 Z M89.8398438,135 L104.535156,135 L104.535156,91.0546875 C104.628907,85.7109108 106.175766,81.843762 109.175781,79.453125 C111.84767,77.0156128 115.058575,75.796875 118.808594,75.796875 C122.136735,75.796875 125.347641,77.0156128 128.441406,79.453125 L139.128906,66.7265625 C134.76951,63.0702942 129.660186,61.195313 123.800781,61.1015625 C115.972617,61.1015625 109.644555,63.9843462 104.816406,69.75 L104.535156,69.75 L104.535156,62.015625 L89.8398438,62.015625 L89.8398438,135 Z M199.878906,104.0625 L199.878906,91.96875 C199.785156,82.359327 196.808623,74.8125274 190.949219,69.328125 C185.183565,63.937473 178.128948,61.195313 169.785156,61.1015625 C166.316389,61.1015625 162.800799,61.7343687 159.238281,63 C155.628888,64.2656313 152.371108,66.3281107 149.464844,69.1875 C146.605455,72.0000141 144.261728,75.8437256 142.433594,80.71875 C140.60546,85.5000239 139.691406,91.4999639 139.691406,98.71875 C139.691406,106.218787 140.746083,112.312477 142.855469,117 C144.777353,121.875024 147.285141,125.671861 150.378906,128.390625 C151.972664,129.703132 153.683585,130.804683 155.511719,131.695312 C157.246102,132.726568 159.027335,133.546872 160.855469,134.15625 C164.511737,135.281256 168.2617,135.84375 172.105469,135.84375 C182.183644,135.9375 190.949182,132.00004 198.402344,124.03125 L187.785156,114.960938 C183.097633,119.695336 177.777374,122.0625 171.824219,122.0625 C166.714818,122.0625 162.58986,120.51564 159.449219,117.421875 C156.074202,114.374985 154.386719,109.921904 154.386719,104.0625 L199.878906,104.0625 Z M154.386719,91.96875 C154.66797,86.2968466 156.191392,82.007827 158.957031,79.1015625 C161.769545,76.3359237 165.378884,74.953125 169.785156,74.953125 C174.191428,74.953125 177.800767,76.3359237 180.613281,79.1015625 C183.472671,82.007827 184.996093,86.2968466 185.183594,91.96875 L154.386719,91.96875 Z M253.597656,135 L268.292969,135 L268.292969,85.1484375 C268.199218,76.242143 265.410184,69.9609558 259.925781,66.3046875 C254.441379,62.7421697 247.105515,61.007812 237.917969,61.1015625 C227.042914,60.9140616 218.816434,64.4765259 213.238281,71.7890625 L224.769531,80.578125 C226.035163,78.4687395 227.76952,76.9687545 229.972656,76.078125 C232.082042,75.3281212 234.964826,74.953125 238.621094,74.953125 C248.699269,74.7656241 253.691407,77.8827804 253.597656,84.3046875 L253.597656,91.96875 L233.277344,91.96875 C225.496055,92.0625005 219.589864,94.1718544 215.558594,98.296875 C211.527324,102.328145 209.511719,107.414032 209.511719,113.554688 C209.511719,119.976595 211.832008,125.249979 216.472656,129.375 C220.878928,133.593771 227.160116,135.75 235.316406,135.84375 C240.285181,135.84375 244.175767,135.234381 246.988281,134.015625 C249.847671,132.843744 251.957025,131.015637 253.316406,128.53125 L253.597656,128.53125 L253.597656,135 Z M253.597656,109.335938 C253.597656,114.82034 252.44923,118.33593 250.152344,119.882812 C247.621081,121.429695 243.285187,122.15625 237.144531,122.0625 C232.269507,122.0625 228.777354,121.101572 226.667969,119.179688 C224.464833,117.445304 223.363281,115.33595 223.363281,112.851562 C223.269531,107.179659 227.488239,104.250001 236.019531,104.0625 L253.597656,104.0625 L253.597656,109.335938 Z M288.121094,62.015625 L280.808594,62.015625 L280.808594,73.1953125 L288.121094,73.1953125 L288.121094,117 C288.121094,122.765654 289.808577,127.17186 293.183594,130.21875 C296.46486,133.406266 300.683568,135 305.839844,135 L313.503906,135 L313.503906,121.148438 L308.019531,121.148438 C304.457013,121.242188 302.722656,119.437519 302.816406,115.734375 L302.816406,73.1953125 L313.503906,73.1953125 L313.503906,62.015625 L302.816406,62.015625 L302.816406,39.796875 L288.121094,39.796875 L288.121094,62.015625 Z M327.707031,135 L342.402344,135 L342.402344,62.015625 L327.707031,62.015625 L327.707031,135 Z M327.707031,47.1796875 L342.402344,47.1796875 L342.402344,32.484375 L327.707031,32.484375 L327.707031,47.1796875 Z M378.261719,135 L390.355469,135 L417.144531,62.015625 L401.535156,62.015625 L384.449219,113.132812 L384.167969,113.132812 L367.011719,62.015625 L351.472656,62.015625 L378.261719,135 Z M481.480469,104.0625 L481.480469,91.96875 C481.386718,82.359327 478.410186,74.8125274 472.550781,69.328125 C466.785127,63.937473 459.730511,61.195313 451.386719,61.1015625 C447.917951,61.1015625 444.402362,61.7343687 440.839844,63 C437.230451,64.2656313 433.972671,66.3281107 431.066406,69.1875 C428.207017,72.0000141 425.86329,75.8437256 424.035156,80.71875 C422.207022,85.5000239 421.292969,91.4999639 421.292969,98.71875 C421.292969,106.218787 422.347646,112.312477 424.457031,117 C426.378916,121.875024 428.886703,125.671861 431.980469,128.390625 C433.574227,129.703132 435.285147,130.804683 437.113281,131.695312 C438.847665,132.726568 440.628897,133.546872 442.457031,134.15625 C446.1133,135.281256 449.863262,135.84375 453.707031,135.84375 C463.785207,135.9375 472.550744,132.00004 480.003906,124.03125 L469.386719,114.960938 C464.699195,119.695336 459.378936,122.0625 453.425781,122.0625 C448.316381,122.0625 444.191422,120.51564 441.050781,117.421875 C437.675764,114.374985 435.988281,109.921904 435.988281,104.0625 L481.480469,104.0625 Z M435.988281,91.96875 C436.269533,86.2968466 437.792955,82.007827 440.558594,79.1015625 C443.371108,76.3359237 446.980447,74.953125 451.386719,74.953125 C455.792991,74.953125 459.40233,76.3359237 462.214844,79.1015625 C465.074233,82.007827 466.597655,86.2968466 466.785156,91.96875 L435.988281,91.96875 Z M532.738281,135 L598.199219,135 L598.199219,120.304688 L548.277344,120.304688 L548.277344,32.484375 L532.738281,32.484375 L532.738281,135 Z M607.902344,98.4375 C607.902344,106.125038 608.53515,111.984355 609.800781,116.015625 C611.113288,120.046895 613.128893,123.539048 615.847656,126.492188 C617.863291,128.789074 620.675763,130.851553 624.285156,132.679688 C627.847674,134.695323 632.417941,135.75 637.996094,135.84375 C643.761748,135.75 648.425763,134.695323 651.988281,132.679688 C653.910166,131.835933 655.480463,130.828131 656.699219,129.65625 C658.058601,128.624995 659.207027,127.570318 660.144531,126.492188 C663.050796,123.539048 665.113275,120.046895 666.332031,116.015625 C667.503912,111.984355 668.089844,106.125038 668.089844,98.4375 C668.089844,90.7499616 667.503912,84.8437706 666.332031,80.71875 C665.113275,76.6874798 663.050796,73.2890763 660.144531,70.5234375 C658.222647,68.0859253 655.503924,65.9062596 651.988281,63.984375 C648.425763,62.1562409 643.761748,61.195313 637.996094,61.1015625 C632.417941,61.195313 627.847674,62.1562409 624.285156,63.984375 C620.675763,65.9062596 617.863291,68.0859253 615.847656,70.5234375 C613.128893,73.2890763 611.113288,76.6874798 609.800781,80.71875 C608.53515,84.8437706 607.902344,90.7499616 607.902344,98.4375 L607.902344,98.4375 Z M653.394531,98.578125 C653.394531,103.5469 653.160159,107.203113 652.691406,109.546875 C652.222654,111.937512 651.261726,114.046866 649.808594,115.875 C648.730463,117.281257 647.136729,118.523432 645.027344,119.601562 C643.011709,120.632818 640.667982,121.148438 637.996094,121.148438 C635.511706,121.148438 633.214854,120.632818 631.105469,119.601562 C629.089834,118.523432 627.449225,117.281257 626.183594,115.875 C624.917962,114.046866 624.003909,111.937512 623.441406,109.546875 C622.878903,107.203113 622.597656,103.500025 622.597656,98.4375 C622.597656,93.3280995 622.878903,89.578137 623.441406,87.1875 C624.003909,84.8906135 624.917962,82.8750087 626.183594,81.140625 C627.449225,79.4999918 629.089834,78.2109422 631.105469,77.2734375 C633.214854,76.2890576 635.511706,75.796875 637.996094,75.796875 C640.667982,75.796875 643.011709,76.2890576 645.027344,77.2734375 C647.136729,78.2109422 648.730463,79.4999918 649.808594,81.140625 C651.261726,82.8750087 652.222654,84.8906135 652.691406,87.1875 C653.160159,89.578137 653.394531,93.374974 653.394531,98.578125 L653.394531,98.578125 Z M679.902344,98.4375 C679.902344,106.125038 680.53515,111.984355 681.800781,116.015625 C683.113288,120.046895 685.128893,123.539048 687.847656,126.492188 C689.863291,128.789074 692.675763,130.851553 696.285156,132.679688 C699.847674,134.695323 704.417941,135.75 709.996094,135.84375 C715.761748,135.75 720.425763,134.695323 723.988281,132.679688 C725.910166,131.835933 727.480463,130.828131 728.699219,129.65625 C730.058601,128.624995 731.207027,127.570318 732.144531,126.492188 C735.050796,123.539048 737.113275,120.046895 738.332031,116.015625 C739.503912,111.984355 740.089844,106.125038 740.089844,98.4375 C740.089844,90.7499616 739.503912,84.8437706 738.332031,80.71875 C737.113275,76.6874798 735.050796,73.2890763 732.144531,70.5234375 C730.222647,68.0859253 727.503924,65.9062596 723.988281,63.984375 C720.425763,62.1562409 715.761748,61.195313 709.996094,61.1015625 C704.417941,61.195313 699.847674,62.1562409 696.285156,63.984375 C692.675763,65.9062596 689.863291,68.0859253 687.847656,70.5234375 C685.128893,73.2890763 683.113288,76.6874798 681.800781,80.71875 C680.53515,84.8437706 679.902344,90.7499616 679.902344,98.4375 L679.902344,98.4375 Z M725.394531,98.578125 C725.394531,103.5469 725.160159,107.203113 724.691406,109.546875 C724.222654,111.937512 723.261726,114.046866 721.808594,115.875 C720.730463,117.281257 719.136729,118.523432 717.027344,119.601562 C715.011709,120.632818 712.667982,121.148438 709.996094,121.148438 C707.511706,121.148438 705.214854,120.632818 703.105469,119.601562 C701.089834,118.523432 699.449225,117.281257 698.183594,115.875 C696.917962,114.046866 696.003909,111.937512 695.441406,109.546875 C694.878903,107.203113 694.597656,103.500025 694.597656,98.4375 C694.597656,93.3280995 694.878903,89.578137 695.441406,87.1875 C696.003909,84.8906135 696.917962,82.8750087 698.183594,81.140625 C699.449225,79.4999918 701.089834,78.2109422 703.105469,77.2734375 C705.214854,76.2890576 707.511706,75.796875 709.996094,75.796875 C712.667982,75.796875 715.011709,76.2890576 717.027344,77.2734375 C719.136729,78.2109422 720.730463,79.4999918 721.808594,81.140625 C723.261726,82.8750087 724.222654,84.8906135 724.691406,87.1875 C725.160159,89.578137 725.394531,93.374974 725.394531,98.578125 L725.394531,98.578125 Z M755.488281,164.53125 L770.183594,164.53125 L770.183594,127.195312 C772.855482,129.820326 775.78514,131.882805 778.972656,133.382812 C781.925796,135.023446 785.277325,135.84375 789.027344,135.84375 C793.574242,135.75 797.464828,134.835946 800.699219,133.101562 C803.980485,131.414054 806.628896,129.164077 808.644531,126.351562 C810.660166,123.960926 812.042965,120.890644 812.792969,117.140625 C813.496097,113.390606 813.847656,107.203168 813.847656,98.578125 C813.847656,89.7187057 813.496097,83.4375185 812.792969,79.734375 C812.042965,75.9843562 810.660166,72.960949 808.644531,70.6640625 C804.519511,64.5234068 797.980514,61.3359387 789.027344,61.1015625 C781.339805,61.3359387 775.058618,64.1718478 770.183594,69.609375 L770.183594,62.015625 L755.488281,62.015625 L755.488281,164.53125 Z M784.597656,121.148438 C781.31639,121.148438 778.714853,120.44532 776.792969,119.039062 C774.777334,117.679681 773.300786,115.898449 772.363281,113.695312 C771.472652,111.492176 770.88672,109.031264 770.605469,106.3125 C770.324217,103.734362 770.183594,101.156263 770.183594,98.578125 C770.183594,95.8124862 770.324217,93.0703261 770.605469,90.3515625 C770.88672,87.7734246 771.472652,85.3828235 772.363281,83.1796875 C773.300786,80.9765515 774.777334,79.1953193 776.792969,77.8359375 C778.714853,76.4765557 781.31639,75.796875 784.597656,75.796875 C788.066424,75.796875 790.808584,76.3828066 792.824219,77.5546875 C794.839854,78.8203188 796.269527,80.5546765 797.113281,82.7578125 C798.050786,84.867198 798.683592,87.3046737 799.011719,90.0703125 C799.105469,92.8359513 799.152344,95.6718605 799.152344,98.578125 C799.152344,101.343764 799.105469,104.039049 799.011719,106.664062 C798.683592,109.335951 798.050786,111.773426 797.113281,113.976562 C796.269527,116.085948 794.839854,117.820306 792.824219,119.179688 C790.808584,120.492194 788.066424,121.148438 784.597656,121.148438 L784.597656,121.148438 Z" id="Creative-Loop"></path>
        </g>
    </g>
</svg>